<?xml version="1.0" encoding="iso-8859-1"?>
<!-- Generator: Adobe Illustrator 19.0.0, SVG Export Plug-In . SVG Version: 6.00 Build 0)  -->
<svg version="1.1" id="Capa_1" xmlns="http://www.w3.org/2000/svg" xmlns:xlink="http://www.w3.org/1999/xlink" x="0px" y="0px"
	 viewBox="0 0 512 512" style="enable-background:new 0 0 512 512;" xml:space="preserve">
<path style="fill:#DD2E44;" d="M256,496.941c-225.25,0-256-225.882-256-286.118h512C512,240.941,482.515,496.941,256,496.941"/>
<path style="fill:#A0041E;" d="M512,211.663c0,78.547-114.613,142.215-256,142.215S0,290.209,0,211.663S114.613,69.447,256,69.447
	S512,133.116,512,211.663"/>
<path style="fill:#E6E9EA;" d="M256,331.294c-90.353,0-240.941-45.176-240.941-120.471c0-90.353,92.235-195.765,240.941-195.765
	s240.941,120.471,240.941,195.765S361.412,331.294,256,331.294"/>
<g>
	<path style="fill:#CCD6DD;" d="M217.001,254.367c6.309,5.406,7.048,14.924,1.627,21.233c-5.406,6.309-14.908,7.048-21.233,1.641
		l-22.86-19.606c-6.309-5.421-7.048-14.924-1.641-21.233c5.421-6.309,14.924-7.048,21.233-1.641L217.001,254.367z"/>
	<path style="fill:#CCD6DD;" d="M94.61,231.676c-4.577,6.927-13.929,8.839-20.872,4.262c-6.927-4.577-8.839-13.929-4.246-20.872
		l16.595-25.118c4.593-6.943,13.929-8.855,20.872-4.262c6.927,4.593,8.839,13.929,4.262,20.856L94.61,231.676z"/>
	<path style="fill:#CCD6DD;" d="M440.97,231.676c-4.593,6.927-13.945,8.839-20.886,4.262c-6.927-4.577-8.839-13.929-4.246-20.872
		l16.61-25.118c4.577-6.943,13.929-8.855,20.856-4.262c6.927,4.593,8.839,13.929,4.262,20.856L440.97,231.676z"/>
	<path style="fill:#CCD6DD;" d="M349.055,177.382c1.656,8.132-3.599,16.097-11.746,17.769c-8.147,1.656-16.113-3.614-17.769-11.761
		l-6.008-29.515c-1.672-8.147,3.584-16.083,11.746-17.754c8.147-1.672,16.097,3.599,17.754,11.746L349.055,177.382z"/>
	<path style="fill:#CCD6DD;" d="M235.521,117.772c-5.195-2.108-7.695-8.041-5.572-13.236c2.108-5.18,8.056-7.68,13.236-5.572
		l18.808,7.664c5.195,2.108,7.68,8.041,5.572,13.236c-2.124,5.18-8.041,7.68-13.236,5.572L235.521,117.772z"/>
	<path style="fill:#CCD6DD;" d="M95.536,141.368c-4.623,3.178-10.948,2.003-14.11-2.635c-3.162-4.623-1.988-10.948,2.62-14.11
		l16.775-11.475c4.608-3.178,10.933-2.003,14.11,2.62c3.162,4.623,1.973,10.948-2.651,14.125L95.536,141.368z"/>
	<path style="fill:#CCD6DD;" d="M300.22,270.048c-8.298-0.543-14.592-7.725-14.05-16.022c0.557-8.282,7.725-14.592,16.008-14.05
		l30.072,1.973c8.282,0.527,14.592,7.695,14.05,15.992c-0.543,8.298-7.695,14.607-16.008,14.05L300.22,270.048z"/>
	<path style="fill:#CCD6DD;" d="M161.073,173.886c-7.71-3.132-11.415-11.926-8.267-19.636c3.147-7.68,11.942-11.399,19.636-8.267
		l27.889,11.385c7.695,3.132,11.399,11.912,8.267,19.622c-3.132,7.696-11.926,11.399-19.636,8.252L161.073,173.886z"/>
	<path style="fill:#CCD6DD;" d="M401.177,132.831c-5.211-2.108-7.71-8.041-5.572-13.236c2.108-5.18,8.041-7.68,13.222-5.572
		l18.824,7.664c5.18,2.108,7.68,8.041,5.556,13.236c-2.124,5.18-8.027,7.68-13.236,5.572L401.177,132.831z"/>
</g>
<g>
</g>
<g>
</g>
<g>
</g>
<g>
</g>
<g>
</g>
<g>
</g>
<g>
</g>
<g>
</g>
<g>
</g>
<g>
</g>
<g>
</g>
<g>
</g>
<g>
</g>
<g>
</g>
<g>
</g>
</svg>
